# xmcd
#
# Track frame offsets:
# 150
# 14567
# 33562
# 51877
# 66562
# 85040
# 104867
# 119755
# 138992
# 156802
# 176392
# 195097
# 217322
#
# Disc length: 3365 seconds
#
# Revision: 3
# Processed by: cddbd v1.5.1PL2 Copyright (c) Steve Scherf et al.
# Submitted via: plextools 2.23
#
DISCID=c20d230d
DTITLE=Various Artist - Stealth Original Soundtracks
DYEAR=2005
DGENRE=Soundtrack
TTITLE0=Incubus - Make A Move
TTITLE1=Incubus - Admiration
TTITLE2=Incubus - Neither Of Us Can See
TTITLE3=David Bowie and BT - (She Can) Do That
TTITLE4=Sly and The Family Stone and will.i.am - Dance To The Music
TTITLE5=Institute - Bullet-Proof Skin
TTITLE6=Kasabian - (L.S.F.) Lost Souls Forever
TTITLE7=Dredg - Bug Eyes
TTITLE8=Fray - Over My Head (Cable Car)
TTITLE9=Trading Yesterday - One Day
TTITLE10=Acceptance - Different
TTITLE11=Glenn Hughes feat. Chad Smith and John Fruschiante - Nights In White Satin
TTITLE12=Incubus - Aqueous Transmission
EXTD=YEAR: 2005
EXTT0=
EXTT1=
EXTT2=
EXTT3=
EXTT4=
EXTT5=
EXTT6=
EXTT7=
EXTT8=
EXTT9=
EXTT10=
EXTT11=
EXTT12=
PLAYORDER=
